<?xml version="1.0" encoding="utf-8"?>
<svg version="1.0" id="Layer_1" xmlns="http://www.w3.org/2000/svg" xmlns:xlink="http://www.w3.org/1999/xlink" x="0px" y="0px"
	 width="14px" height="14px" viewBox="0 0 14 14" enable-background="new 0 0 14 14" xml:space="preserve">
<path fill-rule="evenodd" clip-rule="evenodd" fill="#6F737A" d="M9.4,2.5c-0.2-0.2-0.5-0.2-0.7,0L5.9,5.3L3.1,2.5
	c-0.2-0.2-0.5-0.2-0.7,0C2.2,2.7,2.2,3,2.4,3.2L5.2,6L2.4,8.8C2.2,9,2.2,9.3,2.4,9.5c0.2,0.2,0.5,0.2,0.7,0l2.8-2.8l2.8,2.8
	c0.2,0.2,0.5,0.2,0.7,0c0.2-0.2,0.2-0.5,0-0.7L6.6,6l2.8-2.8C9.6,3,9.6,2.7,9.4,2.5z"/>
<path fill-rule="evenodd" clip-rule="evenodd" fill="#DB3B4B" d="M11.5,6C11.8,6,12,6.2,12,6.5v5.8l1.1-1.1c0.2-0.2,0.5-0.2,0.7,0
	c0.2,0.2,0.2,0.5,0,0.7l-2,2c-0.2,0.2-0.5,0.2-0.7,0l-2-2c-0.2-0.2-0.2-0.5,0-0.7c0.2-0.2,0.5-0.2,0.7,0l1.1,1.1V6.5
	C11,6.2,11.2,6,11.5,6z"/>
</svg>
