<?xml version="1.0" encoding="utf-8"?>
<!-- Generator: Adobe Illustrator 25.0.1, SVG Export Plug-In . SVG Version: 6.00 Build 0)  -->
<svg version="1.0" id="Layer_1" xmlns="http://www.w3.org/2000/svg" xmlns:xlink="http://www.w3.org/1999/xlink" x="0px" y="0px"
	 width="64px" height="64px" viewBox="0 0 64 64" enable-background="new 0 0 64 64" xml:space="preserve">
<circle fill="#05930C" cx="32" cy="32" r="32"/>
<path opacity="0.1" fill="#FFFFFF" d="M9.8,9C-3.4,20.8-4.5,41,7.2,54.2s32,14.4,45.2,2.6
	c0.9-0.8,1.8-1.7,2.6-2.6L9.8,9z"/>
<path fill="#FFFFFF" d="M30.4,43.5c-2.2,1.1-4.6,1.6-7,1.5c-3.2,0.1-6.4-1.1-8.6-3.5c-2.2-2.5-3.4-5.8-3.2-9.1
	c-0.2-3.6,1.2-7.1,3.6-9.8c2.4-2.5,5.8-3.8,9.3-3.7c2-0.1,4,0.3,5.9,1v3.1c-1.8-1-3.9-1.5-6-1.5c-2.6-0.1-5.2,1-7,2.9
	c-1.9,2.1-2.8,4.9-2.7,7.8c-0.1,2.7,0.8,5.3,2.5,7.3c1.7,1.8,4.1,2.8,6.6,2.7c2.3,0.1,4.6-0.5,6.6-1.7L30.4,43.5z"/>
<path fill="#FFFFFF" d="M52.8,26.5l-0.4,1.9h-4.6l-1.1,5.3h4.9l-0.5,1.9h-4.8l-1.5,7h-2.2l1.5-7h-4.4l-1.5,7H36l1.5-7h-4.6l0.3-1.9
	h4.7l1.1-5.3H34l0.4-1.9h4.9l1.5-7.1H43l-1.5,7.1H46l1.5-7.1h2.2l-1.5,7.1L52.8,26.5z M45.6,28.3h-4.4L40,33.6h4.5L45.6,28.3z"/>
</svg>
