<?xml version="1.0" encoding="utf-8"?>
<!-- Generator: Adobe Illustrator 25.0.1, SVG Export Plug-In . SVG Version: 6.00 Build 0)  -->
<svg version="1.0" id="Layer_1" xmlns="http://www.w3.org/2000/svg" xmlns:xlink="http://www.w3.org/1999/xlink" x="0px" y="0px"
	 width="16px" height="16px" viewBox="0 0 16 16" enable-background="new 0 0 16 16" xml:space="preserve">
<g id="css">
	<path id="Fill_1" fill-rule="evenodd" clip-rule="evenodd" fill="#9AA7B0" fill-opacity="0.8" d="M7,1L3,5h4V1z"/>
	<path id="Fill_3" fill-rule="evenodd" clip-rule="evenodd" fill="#9AA7B0" fill-opacity="0.8" d="M8,1v5H3v2h10V1H8z"/>
	<path id="Fill_5" fill-rule="evenodd" clip-rule="evenodd" fill="#388A34" fill-opacity="0.4" d="M1,16h15V9H1V16z"/>
	<g id="â_x8C__x98__x2F_alphabet_x2F_C">
		<path id="â_x8C__x98__x2F_alphabet_x2F_C_x5F_2" fill-rule="evenodd" clip-rule="evenodd" fill="#231F20" fill-opacity="0.7" d="
			M2.6,12.5C2.6,11,3.5,10,4.9,10c0.9,0,1.3,0.3,1.7,0.8l-0.5,0.7C5.7,11.1,5.4,11,4.8,11c-0.8,0-1.2,0.7-1.2,1.5
			C3.6,13.2,4,14,4.8,14c0.5,0,0.8-0.1,1.2-0.5l0.6,0.6C6.1,14.7,5.8,15,4.8,15C3.5,15,2.6,14,2.6,12.5z"/>
	</g>
	<path fill="#231F20" fill-opacity="0.7" d="M12.2,12v-1h-1v-1h-1v1h-1v-1h-1v1h-1v1h1v1h-1v1h1v1h1v-1h1v1h1v-1h1v-1h-1v-1H12.2z
		 M10.2,13h-1v-1h1V13z"/>
</g>
</svg>
