<?xml version="1.0" encoding="utf-8"?>
<svg version="1.0" id="Layer_1" xmlns="http://www.w3.org/2000/svg" xmlns:xlink="http://www.w3.org/1999/xlink" x="0px" y="0px"
	 width="14px" height="14px" viewBox="0 0 14 14" enable-background="new 0 0 14 14" xml:space="preserve">
<path fill-rule="evenodd" clip-rule="evenodd" fill="#CED0D6" d="M9.4,4.5c-0.2-0.2-0.5-0.2-0.7,0L5.9,7.3L3.1,4.5
	c-0.2-0.2-0.5-0.2-0.7,0C2.2,4.7,2.2,5,2.4,5.2L5.2,8l-2.8,2.8c-0.2,0.2-0.2,0.5,0,0.7s0.5,0.2,0.7,0l2.8-2.8l2.8,2.8
	c0.2,0.2,0.5,0.2,0.7,0s0.2-0.5,0-0.7L6.6,8l2.8-2.8C9.6,5,9.6,4.7,9.4,4.5z"/>
<path fill-rule="evenodd" clip-rule="evenodd" fill="#DB5C5C" d="M11.5,8C11.2,8,11,7.8,11,7.5V1.7L9.9,2.9C9.7,3,9.3,3,9.1,2.9
	C9,2.7,9,2.3,9.1,2.1l2-2c0.2-0.2,0.5-0.2,0.7,0l2,2c0.2,0.2,0.2,0.5,0,0.7c-0.2,0.2-0.5,0.2-0.7,0L12,1.7v5.8C12,7.8,11.8,8,11.5,8
	z"/>
</svg>
